<svg width="40" height="40" viewBox="0 0 40 40" fill="none" xmlns="http://www.w3.org/2000/svg">
<path d="M1 20C1 9.50659 9.50659 1 20 1C30.4934 1 39 9.50659 39 20C39 30.4934 30.4934 39 20 39C9.50659 39 1 30.4934 1 20Z" stroke="#52689B" stroke-width="2"/>
<path fill-rule="evenodd" clip-rule="evenodd" d="M14.3164 24.3843C13.895 24.8284 13.895 25.5482 14.3164 25.9922C14.7379 26.4361 15.4213 26.4361 15.8427 25.9922L20.1353 21.4703L24.4279 25.9922C24.8492 26.4361 25.5326 26.4361 25.9541 25.9922C26.3755 25.5482 26.3755 24.8284 25.9541 24.3843L21.6615 19.8626L25.9541 15.3406C26.3755 14.8968 26.3755 14.1768 25.9541 13.733C25.5326 13.2889 24.8492 13.2889 24.4279 13.733L20.1353 18.2547L15.8427 13.733C15.4213 13.2889 14.7379 13.2889 14.3165 13.733C13.895 14.1768 13.895 14.8968 14.3165 15.3406L18.609 19.8626L14.3164 24.3843Z" fill="#52689B"/>
</svg>
